<?xml version="1.0" encoding="UTF-8" standalone="no"?>
<svg
  height="17.999756mm"
  id="svg8"
  inkscape:version="1.0.1 (unknown)"
  sodipodi:docname="logo-contrast.svg"
  version="1.1"
  viewBox="0 0 49.999996 17.999757"
  width="49.999996mm"
  xmlns="http://www.w3.org/2000/svg"
  xmlns:cc="http://creativecommons.org/ns#"
  xmlns:dc="http://purl.org/dc/elements/1.1/"
  xmlns:inkscape="http://www.inkscape.org/namespaces/inkscape"
  xmlns:rdf="http://www.w3.org/1999/02/22-rdf-syntax-ns#"
  xmlns:sodipodi="http://sodipodi.sourceforge.net/DTD/sodipodi-0.dtd">
  <defs
    id="defs2"/>
  <sodipodi:namedview
    bordercolor="#666666"
    borderopacity="1.0"
    fit-margin-bottom="0"
    fit-margin-left="0"
    fit-margin-right="0"
    fit-margin-top="0"
    id="base"
    inkscape:current-layer="g951"
    inkscape:cx="42.415799"
    inkscape:cy="48.080701"
    inkscape:document-rotation="0"
    inkscape:document-units="mm"
    inkscape:guide-bbox="true"
    inkscape:pageopacity="0.0"
    inkscape:pageshadow="2"
    inkscape:window-height="1005"
    inkscape:window-maximized="0"
    inkscape:window-width="2520"
    inkscape:window-x="20"
    inkscape:window-y="55"
    inkscape:zoom="2"
    pagecolor="#ffffff"
    showgrid="false"
    showguides="true"/>
  <metadata
    id="metadata5">
    <rdf:RDF>
      <cc:Work
        rdf:about="">
        <dc:format>image/svg+xml</dc:format>
        <dc:type
          rdf:resource="http://purl.org/dc/dcmitype/StillImage"/>
        <dc:title></dc:title>
      </cc:Work>
    </rdf:RDF>
  </metadata>
  <g
    id="layer1"
    inkscape:groupmode="layer"
    inkscape:label="Layer 1"
    transform="translate(-3809.3903,-2.0948316)">
    <g
      aria-label="E"
      id="text835-3-1-3-62-6-5-1"
      style="font-style:normal;font-weight:normal;font-size:18.9588px;line-height:1.25;font-family:sans-serif;fill:#ff3425;fill-opacity:1;stroke:none;stroke-width:0.473969"
      transform="matrix(1.3324176,0,0,1.4988058,225.4949,-159.39349)">
      <g
        id="g1394"
        transform="matrix(0.70744477,0,0,0.70744477,786.90595,31.521264)">
        <g
          id="g951">
          <path
            d="m 2701.5557,107.74466 -3.3379,5.51203 -5.3492,-3.5e-4 v -2.75567 h 3.1952 l 1.7798,-2.75567 h -8.0747 v 6.88917 6.88916 h 8.0736 l -1.7787,-2.75567 h -3.1952 V 116.012 l 5.3492,-3.6e-4 3.3379,5.51204 h 3.7129 l -4.1711,-6.88951 4.1711,-6.88951 z"
            id="path855-65-2-9-0-3-2-1-2-5-68-4-1-0-1"
            sodipodi:nodetypes="ccccccccccccccccccc"
            style="font-style:normal;font-variant:normal;font-weight:900;font-stretch:normal;font-size:18.9588px;line-height:1.25;font-family:'Titillium Web';-inkscape-font-specification:'Titillium Web Heavy';fill:#ffffff;fill-opacity:1;stroke:none;stroke-width:0.50892"/>
          <path
            d="m 2714.3573,121.52505 -1.4985,-10e-4 -0.027,-1.21902 c -0.2135,0.17038 -0.4409,0.33101 -0.6818,0.48192 -0.2354,0.14605 -0.4847,0.27506 -0.7475,0.38704 -0.2629,0.10708 -0.534,0.19228 -0.813,0.25557 -0.2739,0.0633 -0.5532,0.095 -0.8379,0.095 -0.6188,0 -1.2022,-0.0925 -1.7497,-0.27748 -0.5422,-0.18499 -1.0187,-0.45274 -1.4292,-0.80325 -0.4053,-0.35538 -0.7256,-0.78865 -0.9613,-1.2998 -0.2354,-0.51115 -0.3532,-1.09289 -0.3532,-1.74521 0,-0.60853 0.1178,-1.16593 0.3532,-1.6722 0.2357,-0.51116 0.556,-0.9493 0.9613,-1.3144 0.4105,-0.36512 0.887,-0.64747 1.4292,-0.84706 0.5475,-0.20445 1.1309,-0.30668 1.7497,-0.30668 0.2847,0 0.5667,0.0316 0.8461,0.0949 0.279,0.0633 0.5501,0.15088 0.8131,0.26289 0.2627,0.11196 0.5118,0.24339 0.7474,0.3943 0.2409,0.15092 0.4655,0.314 0.6736,0.48926 l 0.027,-1.24269 1.4985,10e-4 z m -2.3719,-4.12669 c 0,-0.27262 -0.061,-0.53549 -0.1807,-0.78862 -0.1149,-0.25802 -0.2737,-0.48439 -0.4762,-0.67913 -0.2027,-0.19956 -0.4409,-0.35777 -0.7147,-0.47461 -0.2685,-0.12172 -0.5559,-0.18257 -0.8624,-0.18257 -0.3068,0 -0.597,0.0463 -0.8707,0.13877 -0.2683,0.0925 -0.5039,0.22879 -0.7066,0.40892 -0.197,0.18011 -0.3531,0.40404 -0.4681,0.67177 -0.1151,0.26288 -0.1725,0.56472 -0.1725,0.90547 0,0.34078 0.058,0.64503 0.1725,0.91277 0.115,0.26289 0.2711,0.4844 0.4681,0.66453 0.2027,0.18012 0.4383,0.31642 0.7066,0.40892 0.2737,0.0925 0.5639,0.13873 0.8707,0.13873 0.3065,0 0.5939,-0.0584 0.8624,-0.17525 0.2738,-0.12171 0.512,-0.27993 0.7147,-0.47465 0.2025,-0.1996 0.3613,-0.42597 0.4762,-0.6791 0.1204,-0.25801 0.1807,-0.52333 0.1807,-0.79595 z"
            id="path920-1-7-0-5-7-2-2-2-4-8"
            sodipodi:nodetypes="ccccccscccscccscccccccscccscccscccscccs"
            style="font-style:normal;font-variant:normal;font-weight:bold;font-stretch:normal;font-size:27.193px;line-height:1.25;font-family:Righteous;-inkscape-font-specification:'Righteous Bold';fill:#ffffff;fill-opacity:1;stroke:none;stroke-width:0.396533"/>
          <path
            d="m 2724.8784,121.52368 h -1.5229 l -0,-1.21944 c -0.2137,0.17042 -0.4411,0.33115 -0.6819,0.48208 -0.2357,0.14611 -0.485,0.27517 -0.7479,0.38717 -0.263,0.10713 -0.5341,0.19235 -0.8133,0.25567 -0.2741,0.0633 -0.5533,0.095 -0.8383,0.095 -0.6189,0 -1.2022,-0.10229 -1.7503,-0.3068 -0.5422,-0.20941 -1.0186,-0.49672 -1.4296,-0.86193 -0.4052,-0.37012 -0.7258,-0.80597 -0.9613,-1.30754 -0.2356,-0.50648 -0.3533,-1.05675 -0.3533,-1.65085 0,-0.58925 0.1177,-1.13709 0.3533,-1.64354 0.2355,-0.50645 0.5561,-0.94473 0.9613,-1.31483 0.411,-0.37011 0.8874,-0.65986 1.4296,-0.86926 0.5481,-0.2094 1.1314,-0.31408 1.7503,-0.31408 0.1972,0 0.4,0.0145 0.6083,0.0439 0.2135,0.0293 0.4188,0.0778 0.6161,0.1461 0.2026,0.0633 0.3917,0.14852 0.567,0.25567 0.1753,0.10715 0.3232,0.2386 0.4436,0.39443 v -4.97257 h 2.3719 z m -2.3719,-4.12669 c 0,-0.27271 -0.061,-0.53567 -0.1808,-0.7889 -0.115,-0.2581 -0.2739,-0.48455 -0.4764,-0.67933 -0.2028,-0.19964 -0.441,-0.35791 -0.7151,-0.47478 -0.2683,-0.12176 -0.5559,-0.18263 -0.8627,-0.18263 -0.3068,0 -0.5972,0.0487 -0.8709,0.1461 -0.2684,0.0973 -0.504,0.23859 -0.7067,0.42368 -0.1973,0.18017 -0.3532,0.40173 -0.4682,0.66469 -0.1151,0.26297 -0.1727,0.56003 -0.1727,0.89117 0,0.28732 0.058,0.56002 0.1727,0.81812 0.115,0.2581 0.2709,0.48454 0.4682,0.67932 0.2027,0.1948 0.4383,0.3482 0.7067,0.4602 0.2737,0.11201 0.5641,0.16801 0.8709,0.16801 0.3068,0 0.5944,-0.0584 0.8627,-0.1753 0.2741,-0.12176 0.5123,-0.28002 0.7151,-0.47481 0.2025,-0.19967 0.3614,-0.42611 0.4764,-0.67934 0.1206,-0.25809 0.1808,-0.5235 0.1808,-0.7962 z"
            id="path922-7-1-88-1-6-3-7-1-6-9"
            sodipodi:nodetypes="ccccccscccssccsccsccccscccsccsssccscccs"
            style="font-style:normal;font-variant:normal;font-weight:bold;font-stretch:normal;font-size:27.193px;line-height:1.25;font-family:Righteous;-inkscape-font-specification:'Righteous Bold';fill:#ffffff;fill-opacity:1;stroke:none;stroke-width:0.396664"/>
          <path
            d="m 2728.9759,121.55846 h -2.3802 v -8.30175 h 1.3443 l 0.016,0.98442 c 0.3837,-0.31005 0.8197,-0.54775 1.308,-0.71312 0.4883,-0.17053 0.994,-0.2558 1.5171,-0.2558 h 2.1015 v 2.10838 h -2.1015 c -0.2499,0 -0.4853,0.0413 -0.7062,0.12402 -0.2209,0.0827 -0.4128,0.19638 -0.5755,0.34107 -0.1627,0.14469 -0.2907,0.31521 -0.3839,0.51158 -0.093,0.19637 -0.1393,0.40566 -0.1393,0.62785 z"
            id="path924-57-5-17-1-3-3-6-8-5-7"
            sodipodi:nodetypes="ccccccsccscscsc"
            style="font-style:normal;font-variant:normal;font-weight:bold;font-stretch:normal;font-size:27.193px;line-height:1.25;font-family:Righteous;-inkscape-font-specification:'Righteous Bold';fill:#ffffff;fill-opacity:1;stroke:none;stroke-width:0.420926"/>
          <path
            d="m 2736.8226,124.7204 v -2.1475 l 1.3252,0.0155 c 0.2326,0 0.4564,-0.0336 0.6715,-0.10082 0.2152,-0.0671 0.4129,-0.14371 0.593,-0.2626 0.186,-0.11885 0.3488,-0.26096 0.4885,-0.42633 0.1394,-0.16019 0.2526,-0.33589 0.3397,-0.52708 -0.2615,0.0982 -0.5288,0.19636 -0.8021,0.29454 -0.2673,0.0982 -0.5376,0.14729 -0.8109,0.14729 -0.5755,0 -1.1161,-0.0904 -1.6218,-0.27133 -0.5058,-0.18085 -0.9505,-0.43663 -1.3341,-0.76736 -0.3778,-0.33589 -0.6772,-0.74154 -0.8982,-1.21697 -0.2151,-0.48058 -0.3226,-1.01801 -0.3226,-1.61229 v -4.58879 h 2.3718 v 4.58879 c 0,0.29456 0.046,0.55294 0.1395,0.77514 0.099,0.21704 0.2295,0.40049 0.3923,0.55034 0.1628,0.14469 0.3518,0.25322 0.5669,0.32557 0.2209,0.0724 0.4563,0.10853 0.7062,0.10853 0.2441,0 0.4737,-0.0491 0.6888,-0.1473 0.2209,-0.10334 0.4128,-0.2377 0.5756,-0.40307 0.1628,-0.16536 0.2907,-0.35139 0.3836,-0.55808 0.093,-0.21187 0.1397,-0.42892 0.1397,-0.65113 v -4.58879 h 2.3978 v 7.25528 c -0.01,0.58393 -0.1352,1.13169 -0.3836,1.64327 -0.25,0.5116 -0.593,0.9586 -1.029,1.34099 -0.4303,0.3824 -0.9331,0.66827 -1.5085,0.89048 -0.5755,0.22221 -1.1917,0.33331 -1.8487,0.33331 z"
            id="path926-2-0-5-6-4-1-1-9-0-1"
            sodipodi:nodetypes="ccccccccscccsccscccscscscccccccc"
            style="font-style:normal;font-variant:normal;font-weight:bold;font-stretch:normal;font-size:27.193px;line-height:1.25;font-family:Righteous;-inkscape-font-specification:'Righteous Bold';fill:#ffffff;fill-opacity:1;stroke:none;stroke-width:0.420933"/>
        </g>
      </g>
    </g>
  </g>
</svg>
