<?xml version="1.0" encoding="UTF-8" standalone="no"?>
<svg
   xmlns:dc="http://purl.org/dc/elements/1.1/"
   xmlns:cc="http://creativecommons.org/ns#"
   xmlns:rdf="http://www.w3.org/1999/02/22-rdf-syntax-ns#"
   xmlns:svg="http://www.w3.org/2000/svg"
   xmlns="http://www.w3.org/2000/svg"
   height="17.865202mm"
   id="svg8"
   version="1.1"
   viewBox="0 0 50.47408 17.865203"
   width="50.474079mm">
  <defs
     id="defs2" />
  <metadata
     id="metadata5">
    <rdf:RDF>
      <cc:Work
         rdf:about="">
        <dc:format>image/svg+xml</dc:format>
        <dc:type
           rdf:resource="http://purl.org/dc/dcmitype/StillImage" />
        <dc:title></dc:title>
      </cc:Work>
    </rdf:RDF>
  </metadata>
  <g
     id="layer1"
     transform="translate(-3809.9991,-34.440802)">
    <g
       aria-label="E"
       id="text835-3-1-3-62-6-5-1"
       style="font-style:normal;font-weight:normal;font-size:18.9588px;line-height:1.25;font-family:sans-serif;fill:#ff3425;fill-opacity:1;stroke:none;stroke-width:0.473969"
       transform="matrix(1.3324176,0,0,1.4988058,225.4949,-159.39349)">
      <g
         id="g1394"
         transform="matrix(0.70744477,0,0,0.70744477,786.90595,31.521264)">
        <path
           d="m 2713.24,143.11888 -1.6727,0.007 v 1.03565 c -0.8515,-0.67162 -1.9504,-1.0425 -3.0887,-1.04247 h -0.01 c -2.5679,0.003 -4.6479,1.85437 -4.6478,4.13724 2e-4,2.28459 2.0834,4.13659 4.6533,4.13676 1.1383,3e-5 2.2372,-0.37085 3.0887,-1.04248 v 1.04199 l 1.6727,-0.007 z m -4.7767,2.11175 h 5e-4 c 0.01,-1e-5 0.01,-1e-5 0.015,0 1.2587,-1.9e-4 2.2792,0.90698 2.279,2.02598 -10e-5,1.11881 -1.0205,2.02568 -2.279,2.02549 -1.2583,-1.1e-4 -2.2783,-0.90689 -2.2784,-2.02549 -2e-4,-1.1135 1.0106,-2.0184 2.2631,-2.02598 z"
           id="path920-1-7-0-5-7-2-2-2-4-8-4"
           style="font-style:normal;font-variant:normal;font-weight:bold;font-stretch:normal;font-size:27.193px;line-height:1.25;font-family:Righteous;-inkscape-font-specification:'Righteous Bold';fill:#13304c;fill-opacity:1;stroke:none;stroke-width:0.396532" />
        <path
           d="m 2728.7531,143.10327 -2.3744,0.007 v 8.30179 h 2.3798 l 6e-4,-4.57344 c -0.01,-0.22212 0.046,-0.43136 0.1392,-0.62773 0.093,-0.19637 0.2211,-0.36704 0.3838,-0.51173 0.1627,-0.14469 0.3547,-0.25846 0.5756,-0.34116 0.2209,-0.0827 0.4562,-0.12379 0.7061,-0.12379 h 2.1014 v -0.75249 -1.35585 h -1.665 c -0.4144,0 -0.8153,0.0853 -1.2022,0.25587 -0.3838,0.16405 -0.7263,0.39975 -1.0285,0.70619 -10e-5,9e-5 -5e-4,-9e-5 -5e-4,0 z"
           id="path924-57-5-17-1-3-3-6-8-5-7-8"
           style="font-style:normal;font-variant:normal;font-weight:bold;font-stretch:normal;font-size:27.193px;line-height:1.25;font-family:Righteous;-inkscape-font-specification:'Righteous Bold';fill:#13304c;fill-opacity:1;stroke:none;stroke-width:0.420926" />
        <path
           d="m 2724.332,138.25045 -2.3744,0.007 v 5.44826 c -0.7171,-0.38101 -1.5409,-0.58682 -2.387,-0.58679 h -0.01 c -2.568,0.003 -4.648,1.85433 -4.6479,4.13724 2e-4,2.28459 2.0834,4.13659 4.6533,4.13676 1.1383,3e-5 2.2373,-0.37085 3.0888,-1.04248 v 1.04199 l 1.6726,-0.007 z m -4.7767,6.98053 h 5e-4 c 0.01,-10e-6 0.01,-10e-6 0.015,0 1.2587,-1.9e-4 2.2792,0.90698 2.279,2.02598 -10e-5,1.11881 -1.0205,2.02568 -2.279,2.02549 -1.2583,-1.1e-4 -2.2783,-0.90689 -2.2784,-2.02549 -2e-4,-1.11334 1.0108,-2.01814 2.2631,-2.02598 z"
           id="path920-1-7-0-5-7-2-2-2-4-8-4-9"
           style="font-style:normal;font-variant:normal;font-weight:bold;font-stretch:normal;font-size:27.193px;line-height:1.25;font-family:Righteous;-inkscape-font-specification:'Righteous Bold';fill:#13304c;fill-opacity:1;stroke:none;stroke-width:0.396532" />
        <path
           d="m 2734.6567,143.11888 v 4.14894 c 0.01,2.28041 2.0887,4.12568 4.6539,4.12555 0.8266,-4e-5 1.6012,-0.19373 2.274,-0.52977 v 0.11015 c -0.01,1.11199 -1.0259,2.00904 -2.2767,2.00989 h -1.4912 v 2.11565 h 1.4912 5e-4 c 2.565,-1.3e-4 4.6463,-1.84531 4.6534,-4.12554 v -3.66938 c 10e-5,-0.0123 0,-0.0242 0,-0.0366 v -4.14894 h -2.3771 v 3.93206 0 0.25002 c -0.03,1.09676 -1.037,1.97643 -2.2756,1.97675 -1.2517,2.1e-4 -2.2693,-0.89719 -2.279,-2.00989 v -4.14894 z"
           id="path920-1-7-0-5-7-2-2-2-4-8-4-91"
           style="font-style:normal;font-variant:normal;font-weight:bold;font-stretch:normal;font-size:27.193px;line-height:1.25;font-family:Righteous;-inkscape-font-specification:'Righteous Bold';fill:#13304c;fill-opacity:1;stroke:none;stroke-width:0.396532" />
        <path
           d="m 2690.4148,138.25758 v 13.13499 h 7.9471 l -1.3733,-2.11468 h -4.2384 v -3.39645 l 4.7784,-9.7e-4 3.5799,5.5121 h 2.7466 l -4.2652,-6.56725 4.2652,-6.56773 h -2.7466 l -3.5799,5.5121 -4.7784,-9.8e-4 v -3.39645 h 4.2384 l 1.3733,-2.11467 z"
           id="path855-65-2-9-0-3-2-1-2-5-68-4-1-0-1-7-1"
           style="font-style:normal;font-variant:normal;font-weight:900;font-stretch:normal;font-size:18.9588px;line-height:1.25;font-family:'Titillium Web';-inkscape-font-specification:'Titillium Web Heavy';fill:#3182ce;fill-opacity:1;stroke:none;stroke-width:0.50892" />
      </g>
    </g>
  </g>
</svg>
